<mxfile host="Electron" agent="Mozilla/5.0 (Windows NT 10.0; Win64; x64) AppleWebKit/537.36 (KHTML, like Gecko) draw.io/24.7.17 Chrome/128.0.6613.36 Electron/32.0.1 Safari/537.36" version="24.7.17">
  <diagram name="PÃ¡gina-1" id="AmlFPA1YgHOu2gwmst0m">
    <mxGraphModel dx="621" dy="401" grid="1" gridSize="10" guides="1" tooltips="1" connect="1" arrows="1" fold="1" page="1" pageScale="1" pageWidth="827" pageHeight="1169" math="0" shadow="0">
      <root>
        <mxCell id="0" />
        <mxCell id="1" parent="0" />
        <mxCell id="3lhUCzpjOxWTalsNTR0f-1" value="" style="shape=actor;whiteSpace=wrap;html=1;" vertex="1" parent="1">
          <mxGeometry x="30" y="250" width="40" height="60" as="geometry" />
        </mxCell>
        <mxCell id="3lhUCzpjOxWTalsNTR0f-2" value="Usuario" style="text;html=1;align=center;verticalAlign=middle;whiteSpace=wrap;rounded=0;" vertex="1" parent="1">
          <mxGeometry x="20" y="310" width="60" height="30" as="geometry" />
        </mxCell>
        <mxCell id="3lhUCzpjOxWTalsNTR0f-5" value="" style="edgeStyle=orthogonalEdgeStyle;rounded=0;orthogonalLoop=1;jettySize=auto;html=1;" edge="1" parent="1" source="3lhUCzpjOxWTalsNTR0f-3" target="3lhUCzpjOxWTalsNTR0f-4">
          <mxGeometry relative="1" as="geometry" />
        </mxCell>
        <mxCell id="3lhUCzpjOxWTalsNTR0f-3" value="Â«interfaceÂ»&lt;br&gt;&lt;b&gt;Home ðŸ”’&lt;/b&gt;" style="html=1;whiteSpace=wrap;" vertex="1" parent="1">
          <mxGeometry x="100" y="260" width="110" height="50" as="geometry" />
        </mxCell>
        <mxCell id="3lhUCzpjOxWTalsNTR0f-7" value="" style="edgeStyle=orthogonalEdgeStyle;rounded=0;orthogonalLoop=1;jettySize=auto;html=1;" edge="1" parent="1" source="3lhUCzpjOxWTalsNTR0f-4" target="3lhUCzpjOxWTalsNTR0f-6">
          <mxGeometry relative="1" as="geometry" />
        </mxCell>
        <mxCell id="3lhUCzpjOxWTalsNTR0f-10" value="" style="edgeStyle=orthogonalEdgeStyle;rounded=0;orthogonalLoop=1;jettySize=auto;html=1;" edge="1" parent="1" source="3lhUCzpjOxWTalsNTR0f-4" target="3lhUCzpjOxWTalsNTR0f-9">
          <mxGeometry relative="1" as="geometry" />
        </mxCell>
        <mxCell id="3lhUCzpjOxWTalsNTR0f-4" value="Â«interfaceÂ»&lt;br&gt;&lt;b&gt;Log in/Sing in&lt;/b&gt;" style="html=1;whiteSpace=wrap;" vertex="1" parent="1">
          <mxGeometry x="290" y="260" width="110" height="50" as="geometry" />
        </mxCell>
        <mxCell id="3lhUCzpjOxWTalsNTR0f-12" value="" style="edgeStyle=orthogonalEdgeStyle;rounded=0;orthogonalLoop=1;jettySize=auto;html=1;" edge="1" parent="1" source="3lhUCzpjOxWTalsNTR0f-6" target="3lhUCzpjOxWTalsNTR0f-11">
          <mxGeometry relative="1" as="geometry" />
        </mxCell>
        <mxCell id="3lhUCzpjOxWTalsNTR0f-6" value="Â«interfaceÂ»&lt;br&gt;&lt;b&gt;Log in&lt;/b&gt;" style="html=1;whiteSpace=wrap;" vertex="1" parent="1">
          <mxGeometry x="290" y="150" width="110" height="50" as="geometry" />
        </mxCell>
        <mxCell id="3lhUCzpjOxWTalsNTR0f-21" value="" style="edgeStyle=orthogonalEdgeStyle;rounded=0;orthogonalLoop=1;jettySize=auto;html=1;" edge="1" parent="1" source="3lhUCzpjOxWTalsNTR0f-9" target="3lhUCzpjOxWTalsNTR0f-20">
          <mxGeometry relative="1" as="geometry" />
        </mxCell>
        <mxCell id="3lhUCzpjOxWTalsNTR0f-9" value="Â«interfaceÂ»&lt;br&gt;&lt;div&gt;&lt;b&gt;Sing in&lt;/b&gt;&lt;/div&gt;" style="html=1;whiteSpace=wrap;" vertex="1" parent="1">
          <mxGeometry x="290" y="360" width="110" height="50" as="geometry" />
        </mxCell>
        <mxCell id="3lhUCzpjOxWTalsNTR0f-27" style="edgeStyle=orthogonalEdgeStyle;rounded=0;orthogonalLoop=1;jettySize=auto;html=1;exitX=1;exitY=0.5;exitDx=0;exitDy=0;entryX=0;entryY=0.5;entryDx=0;entryDy=0;" edge="1" parent="1" source="3lhUCzpjOxWTalsNTR0f-11" target="3lhUCzpjOxWTalsNTR0f-14">
          <mxGeometry relative="1" as="geometry" />
        </mxCell>
        <mxCell id="3lhUCzpjOxWTalsNTR0f-11" value="" style="rhombus;whiteSpace=wrap;html=1;" vertex="1" parent="1">
          <mxGeometry x="495" y="135" width="80" height="80" as="geometry" />
        </mxCell>
        <mxCell id="3lhUCzpjOxWTalsNTR0f-13" value="Ingresar datos" style="text;html=1;align=center;verticalAlign=middle;whiteSpace=wrap;rounded=0;" vertex="1" parent="1">
          <mxGeometry x="505" y="160" width="60" height="30" as="geometry" />
        </mxCell>
        <mxCell id="3lhUCzpjOxWTalsNTR0f-14" value="Tiene cuenta" style="rhombus;whiteSpace=wrap;html=1;fontColor=#000000;fillColor=#ffffc0;strokeColor=#ff0000;fontStyle=3" vertex="1" parent="1">
          <mxGeometry x="740" y="132.5" width="80" height="85" as="geometry" />
        </mxCell>
        <mxCell id="3lhUCzpjOxWTalsNTR0f-15" value="No esta&lt;div&gt;registrado&lt;/div&gt;" style="edgeStyle=orthogonalEdgeStyle;html=1;align=left;verticalAlign=bottom;endArrow=open;endSize=8;strokeColor=#ff0000;rounded=0;entryX=0.5;entryY=1;entryDx=0;entryDy=0;exitX=0.5;exitY=1;exitDx=0;exitDy=0;" edge="1" source="3lhUCzpjOxWTalsNTR0f-14" parent="1" target="3lhUCzpjOxWTalsNTR0f-11">
          <mxGeometry x="0.4545" y="13" relative="1" as="geometry">
            <mxPoint x="800" y="170" as="targetPoint" />
            <mxPoint as="offset" />
          </mxGeometry>
        </mxCell>
        <mxCell id="3lhUCzpjOxWTalsNTR0f-16" value="Esta&amp;nbsp;&lt;div&gt;registrado&lt;/div&gt;" style="edgeStyle=orthogonalEdgeStyle;html=1;align=left;verticalAlign=top;endArrow=open;endSize=8;strokeColor=#ff0000;rounded=0;entryX=0;entryY=0.5;entryDx=0;entryDy=0;" edge="1" source="3lhUCzpjOxWTalsNTR0f-14" parent="1" target="3lhUCzpjOxWTalsNTR0f-18">
          <mxGeometry x="-1" relative="1" as="geometry">
            <mxPoint x="790" y="250" as="targetPoint" />
          </mxGeometry>
        </mxCell>
        <mxCell id="3lhUCzpjOxWTalsNTR0f-67" style="edgeStyle=orthogonalEdgeStyle;rounded=0;orthogonalLoop=1;jettySize=auto;html=1;exitX=1;exitY=0.5;exitDx=0;exitDy=0;" edge="1" parent="1" source="3lhUCzpjOxWTalsNTR0f-18" target="3lhUCzpjOxWTalsNTR0f-66">
          <mxGeometry relative="1" as="geometry" />
        </mxCell>
        <mxCell id="3lhUCzpjOxWTalsNTR0f-18" value="Â«interfaceÂ»&lt;br&gt;&lt;b&gt;Home ðŸ”“&lt;/b&gt;" style="html=1;whiteSpace=wrap;" vertex="1" parent="1">
          <mxGeometry x="880" y="150" width="110" height="50" as="geometry" />
        </mxCell>
        <mxCell id="3lhUCzpjOxWTalsNTR0f-34" style="edgeStyle=orthogonalEdgeStyle;rounded=0;orthogonalLoop=1;jettySize=auto;html=1;exitX=1;exitY=0.5;exitDx=0;exitDy=0;entryX=0;entryY=0.5;entryDx=0;entryDy=0;" edge="1" parent="1" source="3lhUCzpjOxWTalsNTR0f-20" target="3lhUCzpjOxWTalsNTR0f-33">
          <mxGeometry relative="1" as="geometry" />
        </mxCell>
        <mxCell id="3lhUCzpjOxWTalsNTR0f-29" value="" style="group" vertex="1" connectable="0" parent="1">
          <mxGeometry x="590" y="133" width="120" height="80" as="geometry" />
        </mxCell>
        <mxCell id="3lhUCzpjOxWTalsNTR0f-24" value="" style="ellipse;shape=cloud;whiteSpace=wrap;html=1;fillColor=#666666;" vertex="1" parent="3lhUCzpjOxWTalsNTR0f-29">
          <mxGeometry width="120" height="80" as="geometry" />
        </mxCell>
        <mxCell id="3lhUCzpjOxWTalsNTR0f-25" value="Revisa registros" style="text;html=1;align=center;verticalAlign=middle;whiteSpace=wrap;rounded=0;" vertex="1" parent="3lhUCzpjOxWTalsNTR0f-29">
          <mxGeometry x="30" y="27" width="60" height="30" as="geometry" />
        </mxCell>
        <mxCell id="3lhUCzpjOxWTalsNTR0f-30" value="" style="group" vertex="1" connectable="0" parent="1">
          <mxGeometry x="590" y="340" width="120" height="80" as="geometry" />
        </mxCell>
        <mxCell id="3lhUCzpjOxWTalsNTR0f-31" value="" style="ellipse;shape=cloud;whiteSpace=wrap;html=1;fillColor=#666666;" vertex="1" parent="3lhUCzpjOxWTalsNTR0f-30">
          <mxGeometry width="120" height="80" as="geometry" />
        </mxCell>
        <mxCell id="3lhUCzpjOxWTalsNTR0f-32" value="Crea la cuenta en servidor" style="text;html=1;align=center;verticalAlign=middle;whiteSpace=wrap;rounded=0;" vertex="1" parent="3lhUCzpjOxWTalsNTR0f-30">
          <mxGeometry x="30" y="27" width="60" height="30" as="geometry" />
        </mxCell>
        <mxCell id="3lhUCzpjOxWTalsNTR0f-33" value="Â«interfaceÂ»&lt;br&gt;&lt;b&gt;Home ðŸ”“&lt;/b&gt;" style="html=1;whiteSpace=wrap;" vertex="1" parent="1">
          <mxGeometry x="740" y="360" width="110" height="50" as="geometry" />
        </mxCell>
        <mxCell id="3lhUCzpjOxWTalsNTR0f-35" value="&lt;h1 style=&quot;margin-top: 0px;&quot;&gt;Pagina principal&lt;/h1&gt;&lt;p&gt;Una vez logueado podra ver &quot;secciones&quot; como perfil, carrito, y demÃ¡s DEFINIDAS POR EL NIVEL DE ACCESO&lt;/p&gt;" style="text;html=1;whiteSpace=wrap;overflow=hidden;rounded=0;" vertex="1" parent="1">
          <mxGeometry x="885" y="32.5" width="270" height="100" as="geometry" />
        </mxCell>
        <mxCell id="3lhUCzpjOxWTalsNTR0f-37" style="edgeStyle=orthogonalEdgeStyle;rounded=0;orthogonalLoop=1;jettySize=auto;html=1;entryX=1;entryY=0.5;entryDx=0;entryDy=0;" edge="1" parent="1" source="3lhUCzpjOxWTalsNTR0f-36" target="3lhUCzpjOxWTalsNTR0f-33">
          <mxGeometry relative="1" as="geometry" />
        </mxCell>
        <mxCell id="3lhUCzpjOxWTalsNTR0f-42" style="edgeStyle=orthogonalEdgeStyle;rounded=0;orthogonalLoop=1;jettySize=auto;html=1;entryX=0;entryY=0.5;entryDx=0;entryDy=0;" edge="1" parent="1" source="3lhUCzpjOxWTalsNTR0f-36" target="3lhUCzpjOxWTalsNTR0f-40">
          <mxGeometry relative="1" as="geometry">
            <mxPoint x="989.9999999999998" y="384.9999999999999" as="targetPoint" />
          </mxGeometry>
        </mxCell>
        <mxCell id="3lhUCzpjOxWTalsNTR0f-36" value="Cliente" style="shape=umlActor;verticalLabelPosition=bottom;verticalAlign=top;html=1;outlineConnect=0;" vertex="1" parent="1">
          <mxGeometry x="910" y="355" width="30" height="60" as="geometry" />
        </mxCell>
        <mxCell id="3lhUCzpjOxWTalsNTR0f-38" value="" style="group" vertex="1" connectable="0" parent="1">
          <mxGeometry x="495" y="345" width="80" height="80" as="geometry" />
        </mxCell>
        <mxCell id="3lhUCzpjOxWTalsNTR0f-20" value="" style="rhombus;whiteSpace=wrap;html=1;" vertex="1" parent="3lhUCzpjOxWTalsNTR0f-38">
          <mxGeometry width="80" height="80" as="geometry" />
        </mxCell>
        <mxCell id="3lhUCzpjOxWTalsNTR0f-23" value="Ingresar datos" style="text;html=1;align=center;verticalAlign=middle;whiteSpace=wrap;rounded=0;" vertex="1" parent="3lhUCzpjOxWTalsNTR0f-38">
          <mxGeometry x="10" y="25" width="60" height="30" as="geometry" />
        </mxCell>
        <mxCell id="3lhUCzpjOxWTalsNTR0f-39" value="" style="group" vertex="1" connectable="0" parent="1">
          <mxGeometry x="980" y="345" width="80" height="80" as="geometry" />
        </mxCell>
        <mxCell id="3lhUCzpjOxWTalsNTR0f-40" value="" style="rhombus;whiteSpace=wrap;html=1;" vertex="1" parent="3lhUCzpjOxWTalsNTR0f-39">
          <mxGeometry width="80" height="80" as="geometry" />
        </mxCell>
        <mxCell id="3lhUCzpjOxWTalsNTR0f-41" value="Solicitar empleo" style="text;html=1;align=center;verticalAlign=middle;whiteSpace=wrap;rounded=0;" vertex="1" parent="3lhUCzpjOxWTalsNTR0f-39">
          <mxGeometry x="10" y="25" width="60" height="30" as="geometry" />
        </mxCell>
        <mxCell id="3lhUCzpjOxWTalsNTR0f-55" style="edgeStyle=orthogonalEdgeStyle;rounded=0;orthogonalLoop=1;jettySize=auto;html=1;exitX=1;exitY=0.5;exitDx=0;exitDy=0;entryX=0;entryY=0.5;entryDx=0;entryDy=0;" edge="1" parent="1" source="3lhUCzpjOxWTalsNTR0f-40">
          <mxGeometry relative="1" as="geometry">
            <mxPoint x="1109.9999999999998" y="385.0000000000001" as="targetPoint" />
          </mxGeometry>
        </mxCell>
        <mxCell id="3lhUCzpjOxWTalsNTR0f-71" style="edgeStyle=orthogonalEdgeStyle;rounded=0;orthogonalLoop=1;jettySize=auto;html=1;exitX=1;exitY=0.5;exitDx=0;exitDy=0;entryX=0;entryY=0.5;entryDx=0;entryDy=0;" edge="1" parent="1" source="3lhUCzpjOxWTalsNTR0f-56" target="3lhUCzpjOxWTalsNTR0f-69">
          <mxGeometry relative="1" as="geometry" />
        </mxCell>
        <mxCell id="3lhUCzpjOxWTalsNTR0f-72" style="edgeStyle=orthogonalEdgeStyle;rounded=0;orthogonalLoop=1;jettySize=auto;html=1;entryX=0;entryY=0.5;entryDx=0;entryDy=0;" edge="1" parent="1" source="3lhUCzpjOxWTalsNTR0f-56" target="3lhUCzpjOxWTalsNTR0f-68">
          <mxGeometry relative="1" as="geometry" />
        </mxCell>
        <mxCell id="3lhUCzpjOxWTalsNTR0f-56" value="Â«interfaceÂ»&lt;br&gt;&lt;b&gt;PostulaciÃ³n para puestos (Cocinero/empleado)&lt;/b&gt;" style="html=1;whiteSpace=wrap;" vertex="1" parent="1">
          <mxGeometry x="1120" y="345" width="140" height="80" as="geometry" />
        </mxCell>
        <mxCell id="3lhUCzpjOxWTalsNTR0f-66" value="" style="ellipse;html=1;shape=endState;fillColor=#000000;strokeColor=#ff0000;" vertex="1" parent="1">
          <mxGeometry x="1030" y="160" width="30" height="30" as="geometry" />
        </mxCell>
        <mxCell id="3lhUCzpjOxWTalsNTR0f-82" style="edgeStyle=orthogonalEdgeStyle;rounded=0;orthogonalLoop=1;jettySize=auto;html=1;entryX=0;entryY=0.5;entryDx=0;entryDy=0;" edge="1" parent="1" source="3lhUCzpjOxWTalsNTR0f-68" target="3lhUCzpjOxWTalsNTR0f-79">
          <mxGeometry relative="1" as="geometry" />
        </mxCell>
        <mxCell id="3lhUCzpjOxWTalsNTR0f-68" value="Envia solicitud&amp;nbsp;&lt;div&gt;de empleo&amp;nbsp;&lt;/div&gt;&lt;div&gt;como cocinero&lt;/div&gt;" style="ellipse;whiteSpace=wrap;html=1;" vertex="1" parent="1">
          <mxGeometry x="1350" y="440" width="140" height="70" as="geometry" />
        </mxCell>
        <mxCell id="3lhUCzpjOxWTalsNTR0f-83" style="edgeStyle=orthogonalEdgeStyle;rounded=0;orthogonalLoop=1;jettySize=auto;html=1;exitX=1;exitY=0.5;exitDx=0;exitDy=0;entryX=0;entryY=0.5;entryDx=0;entryDy=0;" edge="1" parent="1" source="3lhUCzpjOxWTalsNTR0f-69" target="3lhUCzpjOxWTalsNTR0f-74">
          <mxGeometry relative="1" as="geometry" />
        </mxCell>
        <mxCell id="3lhUCzpjOxWTalsNTR0f-69" value="Envia solicitud&amp;nbsp;&lt;div&gt;de empleo&amp;nbsp;&lt;/div&gt;&lt;div&gt;como repartidor&lt;/div&gt;" style="ellipse;whiteSpace=wrap;html=1;" vertex="1" parent="1">
          <mxGeometry x="1350" y="260" width="140" height="70" as="geometry" />
        </mxCell>
        <mxCell id="3lhUCzpjOxWTalsNTR0f-70" value="&lt;b style=&quot;forced-color-adjust: none; border-color: rgb(0, 0, 0); color: rgb(240, 240, 240); font-family: Helvetica; font-size: 12px; font-style: normal; font-variant-ligatures: normal; font-variant-caps: normal; letter-spacing: normal; orphans: 2; text-align: center; text-indent: 0px; text-transform: none; widows: 2; word-spacing: 0px; -webkit-text-stroke-width: 0px; white-space: normal; background-color: rgb(27, 29, 30); text-decoration-thickness: initial; text-decoration-style: initial; text-decoration-color: initial;&quot;&gt;Pagina de registo de datos para postulantes.&lt;/b&gt;&lt;div style=&quot;forced-color-adjust: none; border-color: rgb(0, 0, 0); color: rgb(240, 240, 240); font-family: Helvetica; font-size: 12px; font-style: normal; font-variant-ligatures: normal; font-variant-caps: normal; font-weight: 400; letter-spacing: normal; orphans: 2; text-indent: 0px; text-transform: none; widows: 2; word-spacing: 0px; -webkit-text-stroke-width: 0px; white-space: normal; background-color: rgb(27, 29, 30); text-decoration-thickness: initial; text-decoration-style: initial; text-decoration-color: initial;&quot;&gt;&lt;i style=&quot;forced-color-adjust: none; border-color: rgb(0, 0, 0);&quot;&gt;Esta recopila datos formales que no se piden a un cliente habitual, dado que, al ser un trabajo se necesitan estos tipos de datos como &quot;Curriculum&quot;&lt;/i&gt;&lt;/div&gt;" style="text;whiteSpace=wrap;html=1;" vertex="1" parent="1">
          <mxGeometry x="1120" y="440" width="150" height="130" as="geometry" />
        </mxCell>
        <mxCell id="3lhUCzpjOxWTalsNTR0f-74" value="Solicitud aceptada?" style="rhombus;whiteSpace=wrap;html=1;fontColor=#000000;fillColor=#ffffc0;strokeColor=#ff0000;fontStyle=1" vertex="1" parent="1">
          <mxGeometry x="1520" y="257.5" width="100" height="75" as="geometry" />
        </mxCell>
        <mxCell id="3lhUCzpjOxWTalsNTR0f-75" value="Ha sido aceptada" style="edgeStyle=orthogonalEdgeStyle;html=1;align=left;verticalAlign=bottom;endArrow=open;endSize=8;strokeColor=#ff0000;rounded=0;" edge="1" source="3lhUCzpjOxWTalsNTR0f-74" parent="1">
          <mxGeometry x="-1" relative="1" as="geometry">
            <mxPoint x="1680" y="295" as="targetPoint" />
          </mxGeometry>
        </mxCell>
        <mxCell id="3lhUCzpjOxWTalsNTR0f-76" value="No fue aceptado" style="edgeStyle=orthogonalEdgeStyle;html=1;align=left;verticalAlign=top;endArrow=open;endSize=8;strokeColor=#ff0000;rounded=0;entryX=1;entryY=0.5;entryDx=0;entryDy=0;exitX=0.5;exitY=1;exitDx=0;exitDy=0;" edge="1" source="3lhUCzpjOxWTalsNTR0f-74" parent="1" target="3lhUCzpjOxWTalsNTR0f-84">
          <mxGeometry x="-0.689" relative="1" as="geometry">
            <mxPoint x="1540" y="375" as="targetPoint" />
            <mxPoint as="offset" />
          </mxGeometry>
        </mxCell>
        <mxCell id="3lhUCzpjOxWTalsNTR0f-79" value="Solicitud aceptada?" style="rhombus;whiteSpace=wrap;html=1;fontColor=#000000;fillColor=#ffffc0;strokeColor=#ff0000;fontStyle=1" vertex="1" parent="1">
          <mxGeometry x="1520" y="437.5" width="100" height="75" as="geometry" />
        </mxCell>
        <mxCell id="3lhUCzpjOxWTalsNTR0f-80" value="Ha sido aceptada" style="edgeStyle=orthogonalEdgeStyle;html=1;align=left;verticalAlign=bottom;endArrow=open;endSize=8;strokeColor=#ff0000;rounded=0;" edge="1" parent="1" source="3lhUCzpjOxWTalsNTR0f-79">
          <mxGeometry x="-1" relative="1" as="geometry">
            <mxPoint x="1730" y="490" as="targetPoint" />
          </mxGeometry>
        </mxCell>
        <mxCell id="3lhUCzpjOxWTalsNTR0f-81" value="No fue aceptada" style="edgeStyle=orthogonalEdgeStyle;html=1;align=left;verticalAlign=top;endArrow=open;endSize=8;strokeColor=#ff0000;rounded=0;entryX=1;entryY=0.5;entryDx=0;entryDy=0;exitX=0.5;exitY=0;exitDx=0;exitDy=0;" edge="1" parent="1" source="3lhUCzpjOxWTalsNTR0f-79" target="3lhUCzpjOxWTalsNTR0f-84">
          <mxGeometry x="-0.5113" relative="1" as="geometry">
            <mxPoint x="1590" y="570" as="targetPoint" />
            <mxPoint as="offset" />
          </mxGeometry>
        </mxCell>
        <mxCell id="3lhUCzpjOxWTalsNTR0f-84" value="Â«MessageÂ»&lt;br&gt;&lt;b&gt;Mensaje de error&lt;/b&gt;" style="html=1;whiteSpace=wrap;" vertex="1" parent="1">
          <mxGeometry x="1400" y="360" width="110" height="50" as="geometry" />
        </mxCell>
      </root>
    </mxGraphModel>
  </diagram>
</mxfile>
